<?xml version="1.0" encoding="UTF-8" standalone="no"?>
<!-- Created with Inkscape (http://www.inkscape.org/) -->

<svg
   xmlns:dc="http://purl.org/dc/elements/1.1/"
   xmlns:cc="http://creativecommons.org/ns#"
   xmlns:rdf="http://www.w3.org/1999/02/22-rdf-syntax-ns#"
   xmlns:svg="http://www.w3.org/2000/svg"
   xmlns="http://www.w3.org/2000/svg"
   xmlns:sodipodi="http://sodipodi.sourceforge.net/DTD/sodipodi-0.dtd"
   xmlns:inkscape="http://www.inkscape.org/namespaces/inkscape"
   width="130.99178mm"
   height="42.564754mm"
   viewBox="0 0 130.99178 42.564754"
   version="1.1"
   id="svg8"
   inkscape:version="0.92.5 (2060ec1f9f, 2020-04-08)"
   sodipodi:docname="logo.svg">
  <defs
     id="defs2">
    <inkscape:perspective
       sodipodi:type="inkscape:persp3d"
       inkscape:vp_x="0 : 148.49999 : 1"
       inkscape:vp_y="0 : 999.99998 : 0"
       inkscape:vp_z="210 : 148.5 : 1"
       inkscape:persp3d-origin="105 : 98.999998 : 1"
       id="perspective822" />
  </defs>
  <sodipodi:namedview
     id="base"
     pagecolor="#ffffff"
     bordercolor="#666666"
     borderopacity="1.0"
     inkscape:pageopacity="0.0"
     inkscape:pageshadow="2"
     inkscape:zoom="0.7"
     inkscape:cx="428.90801"
     inkscape:cy="72.99833"
     inkscape:document-units="mm"
     inkscape:current-layer="layer1"
     showgrid="false"
     inkscape:window-width="1366"
     inkscape:window-height="693"
     inkscape:window-x="0"
     inkscape:window-y="0"
     inkscape:window-maximized="1"
     showguides="true"
     inkscape:guide-bbox="true" />
  <metadata
     id="metadata5">
    <rdf:RDF>
      <cc:Work
         rdf:about="">
        <dc:format>image/svg+xml</dc:format>
        <dc:type
           rdf:resource="http://purl.org/dc/dcmitype/StillImage" />
        <dc:title></dc:title>
      </cc:Work>
    </rdf:RDF>
  </metadata>
  <g
     inkscape:label="Camada 1"
     inkscape:groupmode="layer"
     id="layer1"
     transform="translate(-49.477112,-108.98862)">
    <g
       id="g905"
       transform="translate(-3.7797619,1.889881)">
      <g
         aria-label="UbyUS"
         style="font-style:normal;font-weight:normal;font-size:11.68256283px;line-height:1.25;font-family:sans-serif;letter-spacing:0px;word-spacing:0px;fill:#000000;fill-opacity:1;stroke:none;stroke-width:0.29206407"
         id="text12">
        <path
           d="m 54.320852,109.14485 c -0.695678,0 -1.063978,0.28646 -1.063978,1.06398 v 15.30491 c 0,8.63459 5.115278,12.80865 12.685889,12.80865 7.857067,0 13.217878,-4.4196 13.217878,-12.8905 v -15.22306 c 0,-0.77752 -0.327378,-1.06398 -1.1049,-1.06398 h -4.951589 c -0.695678,0 -1.063978,0.28646 -1.063978,1.06398 v 14.732 c 0,4.4196 -2.087033,6.83401 -5.851878,6.83401 -3.805766,0 -5.810955,-2.41441 -5.810955,-6.83401 v -14.732 c 0,-0.77752 -0.327378,-1.06398 -1.1049,-1.06398 z"
           style="font-size:40.92222214px;fill:#404040;fill-opacity:1;stroke-width:0.29206407"
           id="path17" />
        <path
           d="m 85.708148,107.09874 c -0.695677,0 -1.023055,0.32738 -1.023055,1.02305 v 28.64556 c 0,0.69568 0.327378,1.02306 1.023055,1.02306 h 7.079545 c 7.611537,0 12.153897,-3.683 12.153897,-10.18964 0,-6.58848 -4.50144,-9.86225 -12.235742,-9.86225 h -0.572911 c -0.450144,0 -0.572911,-0.12277 -0.572911,-0.57291 v -9.04382 c 0,-0.69567 -0.3683,-1.02305 -1.063978,-1.02305 z m 12.194823,20.50203 c 0,2.65995 -1.8415,4.21499 -5.319889,4.21499 h -0.450145 c -0.450144,0 -0.572911,-0.16369 -0.572911,-0.61383 v -6.87494 c 0,-0.45014 0.122767,-0.57291 0.572911,-0.57291 h 0.450145 c 3.478389,0 5.319889,1.26859 5.319889,3.84669 z"
           style="font-size:40.92222214px;opacity:0.98999999;fill:#ff9900;fill-opacity:1;stroke-width:0.29206407"
           id="path19" />
        <path
           d="m 106.45565,118.67973 7.93891,17.96485 -4.37868,9.61673 c -0.0409,0.12276 -0.0818,0.24553 -0.0818,0.40922 0,0.32738 0.24554,0.53199 0.61384,0.53199 h 5.93372 c 0.49107,0 0.7366,-0.28646 1.02305,-0.94121 l 12.11298,-27.37697 c 0.0819,-0.20461 0.12277,-0.40922 0.12277,-0.53199 0,-0.3683 -0.28646,-0.61383 -0.65476,-0.61383 h -5.40173 c -0.77752,0 -1.14582,0.16369 -1.35043,0.81844 l -4.13315,9.9441 -4.25591,-9.9441 c -0.20461,-0.65475 -0.57291,-0.81844 -1.35043,-0.81844 h -5.64727 c -0.3683,0 -0.57291,0.16369 -0.57291,0.49106 0,0.0819 0.0409,0.24554 0.0819,0.45015 z"
           style="font-size:40.92222214px;opacity:0.98999999;fill:#ff9900;fill-opacity:1;stroke-width:0.29206407"
           id="path21" />
        <path
           d="m 133.75073,109.14485 c -0.69568,0 -1.06398,0.28646 -1.06398,1.06398 v 15.30491 c 0,8.63459 5.11528,12.80865 12.68589,12.80865 7.85707,0 13.21788,-4.4196 13.21788,-12.8905 v -15.22306 c 0,-0.77752 -0.32738,-1.06398 -1.1049,-1.06398 h -4.95159 c -0.69568,0 -1.06398,0.28646 -1.06398,1.06398 v 14.732 c 0,4.4196 -2.08703,6.83401 -5.85188,6.83401 -3.80576,0 -5.81095,-2.41441 -5.81095,-6.83401 v -14.732 c 0,-0.77752 -0.32738,-1.06398 -1.1049,-1.06398 z"
           style="font-size:40.92222214px;fill:#404040;fill-opacity:1;stroke-width:0.29206407"
           id="path23" />
        <path
           d="m 165.05613,128.99213 c -0.28646,0 -0.57291,0.20461 -0.81845,0.61383 l -2.12795,3.39655 c -0.20461,0.32737 -0.32738,0.61383 -0.32738,0.90028 0,0.28646 0.20461,0.61384 0.61383,0.94122 2.78271,2.16887 6.30203,3.47838 10.43517,3.47838 6.87493,0 11.4173,-3.47838 11.4173,-9.24842 0,-4.82882 -2.98732,-7.24323 -9.33027,-8.79828 -3.60115,-0.85936 -4.82882,-1.39135 -4.82882,-2.90547 0,-1.35044 1.35043,-2.29165 3.51931,-2.29165 2.29165,0 4.37868,0.85937 6.50664,2.45534 0.28645,0.20461 0.57291,0.32737 0.77752,0.32737 0.28645,0 0.53199,-0.20461 0.77752,-0.57291 l 2.2098,-3.51931 c 0.20461,-0.28645 0.28646,-0.53199 0.28646,-0.81844 0,-0.28646 -0.16369,-0.57291 -0.49107,-0.81845 -2.90548,-2.33256 -6.2611,-3.51931 -10.02595,-3.51931 -6.38386,0 -10.92623,3.39655 -10.92623,9.16658 0,5.03343 3.02825,7.32508 9.00289,8.75735 3.96946,0.94122 5.1562,1.51413 5.1562,2.98733 0,1.43227 -1.43228,2.33256 -4.0513,2.33256 -2.45533,0 -5.03343,-0.98213 -6.9977,-2.49625 -0.32738,-0.24554 -0.57291,-0.3683 -0.77752,-0.3683 z"
           style="font-size:40.92222214px;fill:#404040;fill-opacity:1;stroke-width:0.29206407"
           id="path25" />
      </g>
      <path
         transform="rotate(-90)"
         style="opacity:0.98999999;fill:#ff9900;fill-opacity:1;stroke-width:0.43033183"
         d="m -141.01273,54.371292 h 1.5 V 183.37129 h -1.5 z"
         id="rect824" />
      <g
         aria-label="A d v i s o r s"
         transform="scale(1.0000307,0.99996931)"
         style="font-style:normal;font-weight:normal;font-size:11.6822052px;line-height:1.25;font-family:sans-serif;letter-spacing:0px;word-spacing:0px;fill:#000000;fill-opacity:1;stroke:none;stroke-width:0.29205513"
         id="text4557">
        <path
           d="m 142.98605,149.5854 1.93959,-5.05051 h 0.72002 l 2.06706,5.05051 h -0.76137 l -0.58911,-1.52962 h -2.11184 l -0.55466,1.52962 z m 1.45727,-2.07394 h 1.71222 l -0.5271,-1.39871 q -0.24116,-0.63735 -0.35829,-1.04731 -0.0965,0.48576 -0.27217,0.96463 z"
           style="font-style:normal;font-variant:normal;font-weight:normal;font-stretch:normal;font-size:7.05555534px;line-height:1.25;font-family:Arial;-inkscape-font-specification:Arial;font-variant-ligatures:normal;font-variant-caps:normal;font-variant-numeric:normal;font-feature-settings:normal;text-align:start;letter-spacing:0px;writing-mode:lr-tb;text-anchor:start;fill:#404040;fill-opacity:1;stroke-width:0.29205513"
           id="path29" />
        <path
           d="m 152.11211,149.5854 v -0.46164 q -0.34796,0.54433 -1.0232,0.54433 -0.43752,0 -0.80615,-0.24116 -0.36518,-0.24116 -0.56844,-0.67179 -0.19982,-0.43409 -0.19982,-0.99564 0,-0.54777 0.18259,-0.99218 0.18259,-0.44787 0.54777,-0.68558 0.36518,-0.23771 0.81649,-0.23771 0.33073,0 0.58911,0.14125 0.25839,0.1378 0.42031,0.36173 v -1.81212 h 0.61667 v 5.05051 z m -1.96026,-1.8259 q 0,0.7028 0.29628,1.05076 0.29627,0.34795 0.69935,0.34795 0.40652,0 0.68902,-0.33073 0.28594,-0.33417 0.28594,-1.0163 0,-0.75103 -0.28939,-1.10243 -0.28938,-0.3514 -0.71313,-0.3514 -0.41341,0 -0.69247,0.33762 -0.2756,0.33762 -0.2756,1.06453 z"
           style="font-style:normal;font-variant:normal;font-weight:normal;font-stretch:normal;font-size:7.05555534px;line-height:1.25;font-family:Arial;-inkscape-font-specification:Arial;font-variant-ligatures:normal;font-variant-caps:normal;font-variant-numeric:normal;font-feature-settings:normal;text-align:start;letter-spacing:0px;writing-mode:lr-tb;text-anchor:start;fill:#404040;fill-opacity:1;stroke-width:0.29205513"
           id="path31" />
        <path
           d="m 156.63896,149.5854 -1.39182,-3.65869 h 0.65457 l 0.78548,2.19108 q 0.12747,0.35485 0.23427,0.73725 0.0827,-0.28938 0.23082,-0.69591 l 0.81304,-2.23242 h 0.63735 l -1.38493,3.65869 z"
           style="font-style:normal;font-variant:normal;font-weight:normal;font-stretch:normal;font-size:7.05555534px;line-height:1.25;font-family:Arial;-inkscape-font-specification:Arial;font-variant-ligatures:normal;font-variant-caps:normal;font-variant-numeric:normal;font-feature-settings:normal;text-align:start;letter-spacing:0px;writing-mode:lr-tb;text-anchor:start;fill:#404040;fill-opacity:1;stroke-width:0.29205513"
           id="path33" />
        <path
           d="m 161.11414,145.24803 v -0.71314 h 0.62012 v 0.71314 z m 0,4.33737 v -3.65869 h 0.62012 v 3.65869 z"
           style="font-style:normal;font-variant:normal;font-weight:normal;font-stretch:normal;font-size:7.05555534px;line-height:1.25;font-family:Arial;-inkscape-font-specification:Arial;font-variant-ligatures:normal;font-variant-caps:normal;font-variant-numeric:normal;font-feature-settings:normal;text-align:start;letter-spacing:0px;writing-mode:lr-tb;text-anchor:start;fill:#404040;fill-opacity:1;stroke-width:0.29205513"
           id="path35" />
        <path
           d="m 164.39043,148.49331 0.61322,-0.0965 q 0.0517,0.36862 0.28595,0.56499 0.23771,0.19637 0.66145,0.19637 0.4272,0 0.6339,-0.17225 0.20671,-0.1757 0.20671,-0.40997 0,-0.21015 -0.18259,-0.33073 -0.12747,-0.0827 -0.6339,-0.21015 -0.68213,-0.17225 -0.9474,-0.29628 -0.26183,-0.12747 -0.39963,-0.34795 -0.13436,-0.22393 -0.13436,-0.49265 0,-0.2446 0.11024,-0.45131 0.11369,-0.21015 0.30662,-0.34795 0.14469,-0.1068 0.39274,-0.17915 0.25149,-0.0758 0.53743,-0.0758 0.43064,0 0.75448,0.12402 0.32728,0.12403 0.48231,0.33762 0.15503,0.21015 0.2136,0.565 l -0.60634,0.0827 q -0.0413,-0.2825 -0.24116,-0.44097 -0.19637,-0.15848 -0.5581,-0.15848 -0.42719,0 -0.60978,0.14125 -0.18259,0.14125 -0.18259,0.33073 0,0.12058 0.0758,0.21704 0.0758,0.0999 0.23771,0.16537 0.093,0.0344 0.54777,0.15847 0.65801,0.1757 0.9164,0.28939 0.26182,0.11024 0.40996,0.32384 0.14814,0.21359 0.14814,0.53054 0,0.31006 -0.18259,0.58567 -0.17914,0.27216 -0.52021,0.42375 -0.34106,0.14814 -0.7717,0.14814 -0.71313,0 -1.08865,-0.29628 -0.37207,-0.29628 -0.47542,-0.8785 z"
           style="font-style:normal;font-variant:normal;font-weight:normal;font-stretch:normal;font-size:7.05555534px;line-height:1.25;font-family:Arial;-inkscape-font-specification:Arial;font-variant-ligatures:normal;font-variant-caps:normal;font-variant-numeric:normal;font-feature-settings:normal;text-align:start;letter-spacing:0px;writing-mode:lr-tb;text-anchor:start;fill:#404040;fill-opacity:1;stroke-width:0.29205513"
           id="path37" />
        <path
           d="m 169.89569,147.75606 q 0,-1.01631 0.56499,-1.50551 0.47198,-0.40652 1.15067,-0.40652 0.75447,0 1.23334,0.49609 0.47887,0.49265 0.47887,1.36426 0,0.70625 -0.2136,1.11277 -0.21015,0.40307 -0.61667,0.627 -0.40308,0.22394 -0.88194,0.22394 -0.76826,0 -1.24368,-0.49265 -0.47198,-0.49265 -0.47198,-1.41938 z m 0.63734,0 q 0,0.7028 0.30662,1.0542 0.30661,0.34795 0.7717,0.34795 0.46164,0 0.76825,-0.3514 0.30662,-0.3514 0.30662,-1.07142 0,-0.67869 -0.31006,-1.02664 -0.30662,-0.3514 -0.76481,-0.3514 -0.46509,0 -0.7717,0.34795 -0.30662,0.34796 -0.30662,1.05076 z"
           style="font-style:normal;font-variant:normal;font-weight:normal;font-stretch:normal;font-size:7.05555534px;line-height:1.25;font-family:Arial;-inkscape-font-specification:Arial;font-variant-ligatures:normal;font-variant-caps:normal;font-variant-numeric:normal;font-feature-settings:normal;text-align:start;letter-spacing:0px;writing-mode:lr-tb;text-anchor:start;fill:#404040;fill-opacity:1;stroke-width:0.29205513"
           id="path39" />
        <path
           d="m 176.00384,149.5854 v -3.65869 h 0.55811 v 0.55466 q 0.2136,-0.38929 0.39274,-0.51332 0.18259,-0.12402 0.39963,-0.12402 0.31351,0 0.63734,0.19982 l -0.21359,0.57533 q -0.22738,-0.13436 -0.45475,-0.13436 -0.20326,0 -0.36518,0.12402 -0.16192,0.12058 -0.23083,0.33762 -0.10335,0.33073 -0.10335,0.72347 v 1.91547 z"
           style="font-style:normal;font-variant:normal;font-weight:normal;font-stretch:normal;font-size:7.05555534px;line-height:1.25;font-family:Arial;-inkscape-font-specification:Arial;font-variant-ligatures:normal;font-variant-caps:normal;font-variant-numeric:normal;font-feature-settings:normal;text-align:start;letter-spacing:0px;writing-mode:lr-tb;text-anchor:start;fill:#404040;fill-opacity:1;stroke-width:0.29205513"
           id="path41" />
        <path
           d="m 180.0725,148.49331 0.61323,-0.0965 q 0.0517,0.36862 0.28594,0.56499 0.23771,0.19637 0.66146,0.19637 0.42719,0 0.6339,-0.17225 0.2067,-0.1757 0.2067,-0.40997 0,-0.21015 -0.18259,-0.33073 -0.12746,-0.0827 -0.63389,-0.21015 -0.68213,-0.17225 -0.94741,-0.29628 -0.26182,-0.12747 -0.39963,-0.34795 -0.13436,-0.22393 -0.13436,-0.49265 0,-0.2446 0.11025,-0.45131 0.11369,-0.21015 0.30661,-0.34795 0.1447,-0.1068 0.39274,-0.17915 0.25149,-0.0758 0.53744,-0.0758 0.43063,0 0.75447,0.12402 0.32729,0.12403 0.48232,0.33762 0.15503,0.21015 0.21359,0.565 l -0.60633,0.0827 q -0.0413,-0.2825 -0.24116,-0.44097 -0.19637,-0.15848 -0.55811,-0.15848 -0.42719,0 -0.60978,0.14125 -0.18259,0.14125 -0.18259,0.33073 0,0.12058 0.0758,0.21704 0.0758,0.0999 0.23772,0.16537 0.093,0.0344 0.54777,0.15847 0.65801,0.1757 0.91639,0.28939 0.26183,0.11024 0.40997,0.32384 0.14814,0.21359 0.14814,0.53054 0,0.31006 -0.18259,0.58567 -0.17915,0.27216 -0.52021,0.42375 -0.34107,0.14814 -0.7717,0.14814 -0.71314,0 -1.08865,-0.29628 -0.37208,-0.29628 -0.47543,-0.8785 z"
           style="font-style:normal;font-variant:normal;font-weight:normal;font-stretch:normal;font-size:7.05555534px;line-height:1.25;font-family:Arial;-inkscape-font-specification:Arial;font-variant-ligatures:normal;font-variant-caps:normal;font-variant-numeric:normal;font-feature-settings:normal;text-align:start;letter-spacing:0px;writing-mode:lr-tb;text-anchor:start;fill:#404040;fill-opacity:1;stroke-width:0.29205513"
           id="path43" />
      </g>
    </g>
  </g>
</svg>
